PathFileType	4	(X/Y/Z)	 s08c0201.trc
DataRate	CameraRate	NumFrames	NumMarkers	Units	OrigDataRate	OrigDataStartFrame	OrigNumFrames
200	200	4	50	mm	200	501	2000
Frame#	Time	racr			lacr			c7			jug			rlel			rdr			llel			ldr			s2			lic			ric			lasi			rasi			rpsi			lpsi			rgt			lgt			rth1			rth2			rth3			rth4			rlfc			rmfc			rsh1			rsh2			rsh3			rsh4			rlmal			rmmal			rcal			rtoe			rmt5			lth1			lth2			lth4			lth3			llfc			lmfc			llmal			lmmal			lcal			lmt5			lsh1			lsh2			lsh3			lsh4			ltoe			SBIKE			LBIKE			RBIKE			
		X1	Y1	Z1	X2	Y2	Z2	X3	Y3	Z3	X4	Y4	Z4	X5	Y5	Z5	X6	Y6	Z6	X7	Y7	Z7	X8	Y8	Z8	X9	Y9	Z9	X10	Y10	Z10	X11	Y11	Z11	X12	Y12	Z12	X13	Y13	Z13	X14	Y14	Z14	X15	Y15	Z15	X16	Y16	Z16	X17	Y17	Z17	X18	Y18	Z18	X19	Y19	Z19	X20	Y20	Z20	X21	Y21	Z21	X22	Y22	Z22	X23	Y23	Z23	X24	Y24	Z24	X25	Y25	Z25	X26	Y26	Z26	X27	Y27	Z27	X28	Y28	Z28	X29	Y29	Z29	X30	Y30	Z30	X31	Y31	Z31	X32	Y32	Z32	X33	Y33	Z33	X34	Y34	Z34	X35	Y35	Z35	X36	Y36	Z36	X37	Y37	Z37	X38	Y38	Z38	X39	Y39	Z39	X40	Y40	Z40	X41	Y41	Z41	X42	Y42	Z42	X43	Y43	Z43	X44	Y44	Z44	X45	Y45	Z45	X46	Y46	Z46	X47	Y47	Z47	X48	Y48	Z48	X49	Y49	Z49	X50	Y50	Z50	
501	2.5050	544.564032	1353.244045	-0.994629	588.161067	1317.128570	-355.339498	551.766797	1430.057292	-188.624759	508.288605	1273.634095	-176.539124	535.441388	1108.245432	111.200754	737.417765	935.152602	-33.746686	553.764608	1056.838330	-477.722394	762.948360	915.134725	-391.832574	1.710180	1205.108061	-213.018551	166.928415	1213.646670	-349.431574	147.499646	1219.336417	-34.356703	192.687330	1172.207586	-308.791139	183.416925	1163.914033	-65.318457	30.415077	1243.835968	-157.658409	34.054599	1253.048299	-252.455975	77.481594	1088.444868	-23.298486	136.952208	1111.121843	-391.739364	176.348031	941.385598	-12.992005	238.922797	878.499792	-16.755147	261.883480	795.642031	-31.126020	270.889508	897.369698	-20.719537	324.976755	695.934663	-46.761575	307.294464	682.206632	-153.839735	292.583351	565.984338	-16.522042	319.283735	482.188440	-34.443141	299.551358	398.096893	-43.471429	347.702338	487.926175	-63.725251	295.452649	277.398658	-52.858391	310.938555	301.747325	-140.647849	222.636325	246.340143	-101.724840	519.631298	243.017126	-93.516652	431.068503	206.712828	-30.441961	244.114846	1031.853344	-383.989771	325.835882	1003.998153	-369.983799	342.768861	1031.546064	-352.395551	384.985098	937.477954	-366.606363	454.652975	837.944435	-340.614947	439.079498	803.411063	-235.318309	137.766792	570.812178	-387.574622	167.186243	561.729362	-302.633328	72.490096	591.223274	-349.663074	189.982125	412.645940	-412.919855	367.790534	753.004553	-375.127291	315.185813	686.019465	-369.209061	235.348230	648.906381	-378.382800	329.391946	667.279912	-336.252878	269.718136	379.830327	-344.135636	-133.686359	944.819033	-219.454695	26.751408	85.319451	-426.432083	18.397391	80.271603	-28.055393	
502	2.5100	547.762184	1356.024577	-4.130255	587.284058	1317.927046	-358.828618	553.206891	1431.500698	-192.381268	509.351044	1275.270822	-179.177504	537.395525	1111.795654	110.036966	736.480410	934.633271	-33.678715	552.573661	1056.113190	-478.233879	762.996979	915.341932	-391.596174	3.191799	1206.513782	-208.853849	166.212477	1215.825940	-346.852494	151.941406	1219.583310	-31.726160	193.279911	1174.839197	-306.100645	185.794237	1162.433236	-62.943259	32.113402	1244.695966	-152.516624	34.751315	1254.476071	-247.892915	78.902531	1087.915172	-21.357467	137.962095	1115.678919	-389.754683	173.530612	938.868638	-11.365842	234.333021	874.082973	-15.172495	254.601918	791.009137	-29.759044	266.462921	892.004867	-19.982711	314.807127	688.898245	-46.836031	297.954296	674.879548	-152.215936	283.219338	559.198569	-15.652027	310.691599	475.730173	-33.584243	291.792296	391.329239	-42.892705	339.273157	481.568982	-62.783169	289.039395	270.722254	-52.557525	304.768693	295.034758	-140.306709	216.483219	240.863643	-101.656147	513.544017	233.298579	-93.548009	424.455583	198.252092	-30.464213	245.556408	1037.276664	-382.383711	327.603619	1010.811891	-368.460749	344.019139	1038.314522	-350.118253	387.961801	945.151758	-365.373258	459.251632	846.395748	-340.050377	444.202440	811.325672	-234.594934	142.638883	578.963025	-386.562007	172.241403	569.985546	-301.851381	77.164614	598.452916	-348.649750	196.862278	421.746180	-412.532118	372.384227	761.759632	-374.261520	320.337665	695.778323	-370.180182	240.025575	657.534211	-377.452658	334.366380	675.632713	-335.869479	278.495082	390.077392	-343.351853	-133.540437	944.990893	-218.996529	26.733660	85.545759	-426.356144	18.433284	80.271906	-28.001957	
503	2.5150	551.169273	1358.968311	-7.426197	586.181613	1318.660662	-362.492382	554.474088	1432.791047	-196.208634	510.544654	1276.679733	-181.865423	539.929974	1115.058298	108.746709	735.683403	934.037933	-33.636695	551.435546	1055.556843	-478.960478	763.128958	915.581249	-391.388570	4.367813	1207.746310	-204.612609	165.575980	1217.697405	-344.304156	156.339656	1219.616826	-29.130225	193.907640	1177.247497	-303.366453	188.388556	1161.184197	-60.837074	33.939320	1245.493418	-147.895859	35.393634	1255.957969	-243.375200	80.377183	1087.647200	-19.376120	138.944668	1120.266873	-387.771506	170.465941	936.507337	-9.726504	229.422986	869.963555	-13.468799	247.038909	786.147323	-27.793639	262.302708	887.057447	-17.726707	305.210660	682.892717	-45.347560	287.067735	669.004552	-151.074622	273.420826	552.837111	-14.532661	301.797141	469.671896	-32.445634	283.601168	385.209242	-42.171406	330.450721	475.868744	-61.521598	282.177895	264.628309	-52.238678	298.261648	288.957512	-139.874164	209.936174	235.894328	-101.555080	506.971345	224.102782	-93.550416	417.328365	190.179054	-30.535281	247.094658	1043.137998	-381.150058	329.400089	1017.668624	-366.918385	345.315325	1045.305029	-348.077975	390.995804	953.134465	-364.753913	463.744883	854.710330	-339.605672	449.312978	819.188605	-234.125784	147.819704	586.582280	-385.639066	178.191799	578.584200	-301.195265	81.887390	605.239875	-348.004385	204.291335	430.347497	-412.104755	377.148121	770.508707	-373.989088	325.099428	704.261458	-369.632926	244.793159	665.934228	-376.661502	339.501145	683.722176	-335.752761	284.758278	400.064215	-343.154521	-133.604773	945.126973	-218.089979	26.699096	85.772613	-426.296736	18.510997	80.482898	-27.789093	
504	2.5200	554.544595	1361.940881	-10.927614	584.934294	1319.531647	-366.199286	555.625173	1433.935949	-199.972713	511.724599	1277.903163	-184.689012	542.759740	1118.339952	107.184883	735.134722	933.456192	-33.581448	549.969832	1054.582323	-478.633422	763.325680	915.844342	-391.204016	7.259261	1207.714163	-201.370081	176.970817	1223.863206	-354.632949	160.622700	1219.530927	-26.749881	194.622921	1179.496182	-300.813640	190.818718	1159.902295	-58.917354	36.442077	1247.853595	-134.856797	35.994454	1257.395284	-238.555552	81.705734	1087.416723	-17.582738	139.965583	1124.642719	-385.696301	167.250795	934.468340	-7.884630	224.305660	866.212499	-11.448416	239.543016	781.868447	-26.541201	257.637140	882.374834	-15.965715	294.985042	677.218737	-43.927945	276.551679	663.481262	-149.624241	263.416614	547.070273	-13.333416	292.497923	464.158713	-31.253038	275.049244	379.701606	-41.260574	321.319417	470.731045	-60.053184	274.994447	258.993967	-51.959475	291.087563	283.781641	-139.375925	203.040448	231.704154	-101.429752	499.835780	215.429700	-93.555528	409.751955	182.715430	-30.584519	248.425578	1048.804966	-379.449124	331.150087	1024.615108	-365.616171	346.633069	1052.203216	-346.397787	393.927399	961.103480	-364.161146	468.204967	863.098792	-339.416851	454.409730	826.961660	-233.928526	153.397177	593.669746	-384.861388	183.485843	585.130792	-300.589606	86.961199	611.391529	-347.514266	212.202085	438.644305	-411.736135	381.688819	779.080145	-373.417698	328.956918	710.836278	-366.532002	249.849235	673.638632	-375.483612	345.643362	692.247001	-338.382080	293.443923	409.273565	-342.071617	-133.651208	945.281706	-217.620893	26.683465	86.006913	-426.200954	18.502239	80.523406	-27.737050	
